<svg width="64" height="56.889" xmlns="http://www.w3.org/2000/svg" viewBox="0 0 64 56.889"><path d="M63.688 44.741L48.156 9.186C47.603 7.92 46.4 7.11 45.076 7.11H34.232l.272 2.573a.89.89 0 01-.884.983h-3.24a.89.89 0 01-.884-.983l.272-2.573H18.924c-1.325 0-2.528.81-3.08 2.075L.31 44.74c-1.028 2.355.612 5.037 3.082 5.037h21.871l1.146-10.854a1.777 1.777 0 011.768-1.59h7.644c.91 0 1.672.686 1.768 1.59l1.146 10.854h21.87c2.47 0 4.11-2.682 3.082-5.037zM28.933 15.018a.889.889 0 01.885-.796h4.365a.89.89 0 01.885.796l.51 4.842a1.333 1.333 0 01-1.325 1.473H29.75a1.332 1.332 0 01-1.326-1.473l.51-4.842zm6.138 18.76h-6.143a1.778 1.778 0 01-1.768-1.965l.563-5.333a1.777 1.777 0 011.768-1.591h5.017c.91 0 1.672.687 1.768 1.591l.563 5.333a1.778 1.778 0 01-1.768 1.965z" fill="#626262"/></svg>